<svg width="32" height="32" viewBox="0 0 32 32" fill="none" xmlns="http://www.w3.org/2000/svg">
  <!-- Favicon - Simplified countertop icon -->
  <defs>
    <linearGradient id="faviconGradient" x1="0%" y1="0%" x2="100%" y2="100%">
      <stop offset="0%" style="stop-color:#1e40af;stop-opacity:1" />
      <stop offset="50%" style="stop-color:#2563eb;stop-opacity:1" />
      <stop offset="100%" style="stop-color:#3b82f6;stop-opacity:1" />
    </linearGradient>
    <linearGradient id="faviconAccent" x1="0%" y1="0%" x2="100%" y2="0%">
      <stop offset="0%" style="stop-color:#f59e0b;stop-opacity:1" />
      <stop offset="100%" style="stop-color:#f97316;stop-opacity:1" />
    </linearGradient>
    <pattern id="faviconTexture" patternUnits="userSpaceOnUse" width="2" height="2">
      <rect width="2" height="2" fill="#1e40af"/>
      <circle cx="0.5" cy="0.5" r="0.2" fill="#60a5fa" opacity="0.4"/>
      <circle cx="1.5" cy="1.5" r="0.15" fill="#93c5fd" opacity="0.3"/>
    </pattern>
  </defs>
  
  <!-- Background circle -->
  <circle cx="16" cy="16" r="15" fill="url(#faviconGradient)" stroke="#1e3a8a" stroke-width="1"/>
  
  <!-- Main countertop shape -->
  <path d="M6 14 L26 13 L26 19 L6 20 Z" fill="url(#faviconGradient)" stroke="#1e40af" stroke-width="0.5"/>
  <!-- Texture overlay -->
  <path d="M6 14 L26 13 L26 19 L6 20 Z" fill="url(#faviconTexture)" opacity="0.2"/>
  <!-- Edge -->
  <path d="M6 20 L26 19 L27 22 L7 23 Z" fill="#1e3a8a" opacity="0.9"/>
  <!-- Shine -->
  <path d="M6 14 L26 13 L26 16 L6 17 Z" fill="url(#faviconAccent)" opacity="0.15"/>
  
  <!-- Corner accent -->
  <circle cx="23" cy="14.5" r="1" fill="url(#faviconAccent)" opacity="0.7"/>
  
  <!-- Letter "N" overlay for brand recognition -->
  <path d="M11 10 L11 22 L13 22 L13 16 L17 22 L19 22 L19 10 L17 10 L17 16 L13 10 Z" fill="white" opacity="0.9" font-weight="bold"/>
</svg>
